<svg fill="#ffe600" viewBox="0 0 256 256" id="Flat" xmlns="http://www.w3.org/2000/svg" transform="rotate(45)"><g id="SVGRepo_bgCarrier" stroke-width="0"></g><g id="SVGRepo_tracerCarrier" stroke-linecap="round" stroke-linejoin="round"></g><g id="SVGRepo_iconCarrier"> <path d="M192,28H64A36.04061,36.04061,0,0,0,28,64V192a36.04061,36.04061,0,0,0,36,36H192a36.04061,36.04061,0,0,0,36-36V64A36.04061,36.04061,0,0,0,192,28Zm12,164a12.01312,12.01312,0,0,1-12,12H64a12.01312,12.01312,0,0,1-12-12V64A12.01312,12.01312,0,0,1,64,52H192a12.01312,12.01312,0,0,1,12,12ZM112,84A16,16,0,1,1,96,68,16.01833,16.01833,0,0,1,112,84Zm0,44a16,16,0,1,1-16-16A16.01833,16.01833,0,0,1,112,128Zm0,44a16,16,0,1,1-16-16A16.01833,16.01833,0,0,1,112,172Zm64-88a16,16,0,1,1-16-16A16.01833,16.01833,0,0,1,176,84Zm0,44a16,16,0,1,1-16-16A16.01833,16.01833,0,0,1,176,128Zm0,44a16,16,0,1,1-16-16A16.01833,16.01833,0,0,1,176,172Z"></path> </g></svg>